<svg width="557" height="592" viewBox="0 0 557 592" fill="none" xmlns="http://www.w3.org/2000/svg">
<g clip-path="url(#clip0_9_278)">
<path d="M189.591 415.863C213.651 415.863 233.155 388.033 233.155 353.702C233.155 319.372 213.651 291.542 189.591 291.542C165.532 291.542 146.027 319.372 146.027 353.702C146.027 388.033 165.532 415.863 189.591 415.863Z" fill="#E5E5E5"/>
<path opacity="0.2" d="M157.425 312.184C153.362 325.747 152.81 340.93 155.87 355.019C158.929 369.109 165.4 381.187 174.126 389.096C182.852 397.004 193.265 400.228 203.503 398.19C213.742 396.153 223.139 388.987 230.015 377.973C227.533 386.26 223.818 393.677 219.127 399.711C214.436 405.745 208.882 410.252 202.849 412.92C196.817 415.587 190.45 416.351 184.19 415.159C177.93 413.967 171.926 410.847 166.595 406.015C161.264 401.183 156.733 394.755 153.315 387.177C149.898 379.598 147.676 371.05 146.804 362.125C145.932 353.2 146.43 344.11 148.264 335.487C150.098 326.864 153.224 318.912 157.425 312.184Z" fill="black"/>
<path d="M189.711 353.702H189.831L191.985 529.938H187.437L189.711 353.702Z" fill="#CBCBCB"/>
<path d="M265.491 328.125C294.471 328.125 317.963 294.604 317.963 253.253C317.963 211.903 294.471 178.381 265.491 178.381C236.512 178.381 213.019 211.903 213.019 253.253C213.019 294.604 236.512 328.125 265.491 328.125Z" fill="#E5E5E5"/>
<path opacity="0.2" d="M304.235 203.245C309.129 219.581 309.793 237.869 306.108 254.84C302.423 271.81 294.629 286.358 284.118 295.884C273.608 305.41 261.066 309.292 248.734 306.838C236.402 304.384 225.084 295.753 216.801 282.487C219.791 292.468 224.266 301.402 229.916 308.67C235.566 315.938 242.255 321.367 249.522 324.58C256.788 327.793 264.457 328.713 271.997 327.277C279.537 325.841 286.768 322.083 293.19 316.263C299.611 310.443 305.069 302.701 309.185 293.573C313.301 284.445 315.977 274.149 317.028 263.398C318.078 252.648 317.478 241.7 315.269 231.313C313.06 220.926 309.295 211.349 304.235 203.245Z" fill="black"/>
<path d="M265.347 253.253H265.203L262.608 465.527H268.086L265.347 253.253Z" fill="#CBCBCB"/>
<path d="M168.083 183.121L175.208 174.99C169.673 174.119 167.399 178.426 166.468 181.835C162.144 179.273 157.437 182.63 157.437 182.63L171.692 190.014C170.973 187.274 169.721 184.882 168.083 183.121Z" fill="#CBCBCB"/>
<path d="M150.124 112.96L157.249 104.829C151.714 103.958 149.44 108.265 148.509 111.674C144.185 109.112 139.478 112.47 139.478 112.47L153.733 119.854C153.014 117.113 151.762 114.722 150.124 112.96Z" fill="#CBCBCB"/>
<path d="M251.05 158.321L258.174 150.191C252.64 149.319 250.366 153.627 249.435 157.036C245.111 154.474 240.404 157.831 240.404 157.831L254.659 165.215C253.94 162.475 252.688 160.083 251.05 158.321Z" fill="#CBCBCB"/>
<path d="M244.01 465.202C244.01 465.202 244.283 457.052 249.871 457.999L244.01 465.202Z" fill="#CBCBCB"/>
<path d="M281.972 465.202C281.972 465.202 282.245 457.052 287.833 457.999L281.972 465.202Z" fill="#CBCBCB"/>
<path d="M270.919 465.202C270.919 465.202 271.191 457.052 276.78 457.999L270.919 465.202Z" fill="#CBCBCB"/>
<path d="M233.841 465.202C233.841 465.202 233.569 457.052 227.98 457.999L233.841 465.202Z" fill="#CBCBCB"/>
<path d="M257.527 465.766C257.527 465.766 257.254 457.615 251.666 458.562L257.527 465.766Z" fill="#CBCBCB"/>
<path d="M170.589 529.225C170.589 529.225 170.861 521.074 176.45 522.022L170.589 529.225Z" fill="#CBCBCB"/>
<path d="M208.551 529.225C208.551 529.225 208.823 521.074 214.412 522.022L208.551 529.225Z" fill="#CBCBCB"/>
<path d="M197.497 529.225C197.497 529.225 197.77 521.074 203.358 522.022L197.497 529.225Z" fill="#CBCBCB"/>
<path d="M160.42 529.225C160.42 529.225 160.147 521.074 154.559 522.022L160.42 529.225Z" fill="#CBCBCB"/>
<path d="M184.106 529.788C184.106 529.788 183.833 521.638 178.245 522.585L184.106 529.788Z" fill="#CBCBCB"/>
<path d="M458.636 147.16H385.585V156.449H458.636V147.16Z" fill="#B2EDEC"/>
<path d="M458.636 181.377H385.585V190.666H458.636V181.377Z" fill="#B2EDEC"/>
<path d="M458.636 212.03H385.585V221.318H458.636V212.03Z" fill="#B2EDEC"/>
<path d="M358.108 151.804C358.108 149.408 358.606 147.065 359.539 145.072C360.472 143.079 361.799 141.526 363.351 140.608C364.903 139.691 366.61 139.451 368.258 139.919C369.905 140.386 371.419 141.54 372.606 143.235C373.794 144.93 374.603 147.089 374.931 149.44C375.258 151.791 375.09 154.228 374.447 156.442C373.804 158.656 372.716 160.549 371.319 161.881C369.923 163.212 368.281 163.923 366.601 163.923C364.349 163.919 362.19 162.641 360.598 160.37C359.006 158.098 358.11 155.017 358.108 151.804Z" fill="#00BC62"/>
<path d="M358.108 186.021C358.108 183.625 358.606 181.282 359.539 179.289C360.472 177.296 361.799 175.743 363.351 174.825C364.903 173.908 366.61 173.668 368.258 174.136C369.905 174.603 371.419 175.757 372.606 177.452C373.794 179.147 374.603 181.306 374.931 183.657C375.258 186.008 375.09 188.445 374.447 190.659C373.804 192.873 372.716 194.766 371.319 196.098C369.923 197.429 368.281 198.14 366.601 198.14C364.349 198.136 362.19 196.858 360.598 194.587C359.006 192.315 358.11 189.234 358.108 186.021Z" fill="#00BC62"/>
<path d="M358.108 216.674C358.108 214.277 358.606 211.934 359.539 209.941C360.472 207.949 361.799 206.395 363.351 205.478C364.903 204.561 366.61 204.321 368.258 204.788C369.905 205.256 371.419 206.41 372.606 208.105C373.794 209.8 374.603 211.959 374.931 214.31C375.258 216.661 375.09 219.097 374.447 221.312C373.804 223.526 372.716 225.419 371.319 226.75C369.923 228.082 368.281 228.793 366.601 228.793C364.349 228.789 362.19 227.511 360.598 225.239C359.006 222.967 358.11 219.887 358.108 216.674Z" fill="#00BC62"/>
<path d="M286.519 233.384L285.446 232.195L312.944 181.673H348.907V183.613H313.609L286.519 233.384Z" fill="#B2EDEC"/>
<path d="M73.0512 257.745H0V267.033H73.0512V257.745Z" fill="#B2EDEC"/>
<path d="M73.0512 291.962H0V301.25H73.0512V291.962Z" fill="#B2EDEC"/>
<path d="M73.0512 322.615H0V331.903H73.0512V322.615Z" fill="#B2EDEC"/>
<path d="M92.0355 274.508C90.3557 274.508 88.7137 273.797 87.317 272.465C85.9204 271.134 84.8318 269.241 84.189 267.027C83.5462 264.812 83.378 262.376 83.7057 260.025C84.0334 257.674 84.8423 255.515 86.03 253.82C87.2178 252.125 88.7311 250.971 90.3785 250.503C92.026 250.036 93.7337 250.276 95.2856 251.193C96.8374 252.11 98.1639 253.663 99.0971 255.656C100.03 257.649 100.528 259.992 100.528 262.389C100.528 263.98 100.309 265.556 99.8819 267.027C99.4551 268.497 98.8295 269.833 98.0409 270.958C97.2522 272.083 96.316 272.976 95.2856 273.585C94.2552 274.194 93.1508 274.508 92.0355 274.508Z" fill="#00BC62"/>
<path d="M92.0355 308.725C90.3558 308.725 88.7138 308.014 87.3171 306.682C85.9205 305.351 84.8319 303.458 84.1891 301.244C83.5463 299.029 83.3781 296.593 83.7058 294.242C84.0335 291.891 84.8424 289.732 86.0302 288.037C87.2179 286.342 88.7312 285.188 90.3787 284.72C92.0261 284.253 93.7338 284.493 95.2857 285.41C96.8376 286.327 98.164 287.88 99.0972 289.873C100.03 291.866 100.529 294.209 100.529 296.606C100.529 298.197 100.309 299.773 99.882 301.244C99.4552 302.714 98.8296 304.05 98.041 305.175C97.2523 306.3 96.316 307.193 95.2856 307.802C94.2552 308.411 93.1508 308.725 92.0355 308.725H92.0355Z" fill="#00BC62"/>
<path d="M92.0355 339.377C90.3558 339.377 88.7138 338.667 87.3171 337.335C85.9205 336.003 84.8319 334.111 84.1891 331.896C83.5463 329.682 83.3781 327.245 83.7058 324.895C84.0335 322.544 84.8424 320.384 86.0301 318.69C87.2179 316.995 88.7312 315.841 90.3787 315.373C92.0261 314.905 93.7338 315.145 95.2857 316.063C96.8376 316.98 98.164 318.533 99.0972 320.526C100.03 322.519 100.529 324.862 100.529 327.259C100.529 328.85 100.309 330.426 99.882 331.896C99.4552 333.367 98.8296 334.703 98.041 335.828C97.2523 336.953 96.3161 337.846 95.2856 338.455C94.2552 339.064 93.1508 339.377 92.0355 339.377H92.0355Z" fill="#00BC62"/>
<path d="M172.118 343.969L145.027 294.198H109.729V292.258H145.692L145.896 292.633L173.191 342.779L172.118 343.969Z" fill="#B2EDEC"/>
<path d="M326.75 7.47435H253.699V16.7627H326.75V7.47435Z" fill="#B2EDEC"/>
<path d="M326.75 41.6914H253.699V50.9797H326.75V41.6914Z" fill="#B2EDEC"/>
<path d="M326.75 72.3441H253.699V81.6325H326.75V72.3441Z" fill="#B2EDEC"/>
<path d="M226.222 12.1185C226.222 9.72173 226.72 7.37873 227.653 5.38584C228.586 3.39296 229.913 1.8397 231.465 0.922481C233.016 0.0052588 234.724 -0.23474 236.372 0.232858C238.019 0.700456 239.532 1.85464 240.72 3.54945C241.908 5.24426 242.717 7.40357 243.044 9.75434C243.372 12.1051 243.204 14.5417 242.561 16.7561C241.918 18.9705 240.83 20.8631 239.433 22.1947C238.036 23.5263 236.394 24.2371 234.715 24.2371C232.463 24.2335 230.304 22.9556 228.712 20.6837C227.12 18.4118 226.224 15.3315 226.222 12.1185Z" fill="#00BC62"/>
<path d="M226.222 46.3356C226.222 43.9388 226.72 41.5958 227.653 39.6029C228.586 37.61 229.913 36.0567 231.465 35.1395C233.016 34.2223 234.724 33.9823 236.372 34.4499C238.019 34.9175 239.532 36.0717 240.72 37.7665C241.908 39.4613 242.717 41.6206 243.044 43.9713C243.372 46.3221 243.204 48.7587 242.561 50.9731C241.918 53.1875 240.83 55.0801 239.433 56.4117C238.036 57.7434 236.394 58.4541 234.715 58.4541C232.463 58.4505 230.304 57.1726 228.712 54.9007C227.12 52.6288 226.224 49.5485 226.222 46.3356Z" fill="#00BC62"/>
<path d="M226.222 76.9883C226.222 74.5915 226.72 72.2485 227.653 70.2556C228.586 68.2627 229.913 66.7095 231.465 65.7922C233.016 64.875 234.724 64.635 236.372 65.1026C238.019 65.5702 239.532 66.7244 240.72 68.4192C241.908 70.114 242.717 72.2733 243.044 74.6241C243.372 76.9749 243.204 79.4115 242.561 81.6259C241.918 83.8402 240.83 85.7329 239.433 87.0645C238.036 88.3961 236.394 89.1068 234.715 89.1068C232.463 89.1033 230.304 87.8254 228.712 85.5535C227.12 83.2816 226.224 80.2013 226.222 76.9883Z" fill="#00BC62"/>
<path d="M154.633 93.6982L153.559 92.5089L181.058 41.9872H217.021V43.9273H181.723L154.633 93.6982Z" fill="#B2EDEC"/>
<path d="M514.924 585.244H510.336L508.153 559.989H514.925L514.924 585.244Z" fill="#FFB7B7"/>
<path d="M516.094 591.591L501.298 591.59V591.323C501.298 589.144 501.905 587.054 502.985 585.513C504.065 583.972 505.53 583.106 507.057 583.106H507.058L516.094 583.106L516.094 591.591Z" fill="#2F2E41"/>
<path d="M495.209 585.244H490.621L488.438 559.989H495.21L495.209 585.244Z" fill="#FFB7B7"/>
<path d="M496.379 591.591L481.583 591.59V591.323C481.584 589.144 482.19 587.054 483.27 585.513C484.35 583.972 485.815 583.106 487.342 583.106H487.343L496.38 583.106L496.379 591.591Z" fill="#2F2E41"/>
<path d="M484.763 419.553L478.546 433.661L488.982 576.023L499.889 576.965L502.183 454.01L506.008 519.732L504.497 576.965L515.726 577.742L522.398 494.706L527.422 429.033L517.565 415.938L484.763 419.553Z" fill="#2F2E41"/>
<path d="M513.826 311.658L496.83 312.628L481.082 423.488C481.082 423.488 506.68 441.613 517.051 425.138L523.284 418.621L513.826 311.658Z" fill="#00BC62"/>
<path d="M513.826 311.658L528.782 324.096L523.256 376.166L528.102 429.258L512.365 425.599C512.365 425.599 509.143 376.166 511.234 360.645C513.325 345.125 513.826 311.658 513.826 311.658Z" fill="#3F3D56"/>
<path d="M496.83 312.628L478.934 325.735L480.297 383.402L471.061 427.092C471.061 427.092 489.478 435.502 492.644 422.325C495.81 409.147 496.83 312.628 496.83 312.628Z" fill="#3F3D56"/>
<path d="M520.999 442.396C521.596 441.981 522.122 441.384 522.539 440.648C522.957 439.911 523.256 439.053 523.416 438.133C523.576 437.214 523.593 436.255 523.465 435.326C523.338 434.396 523.069 433.517 522.678 432.752L528.079 420.105L523.493 413.547L516.042 431.56C515.184 432.583 514.619 434.02 514.454 435.597C514.29 437.175 514.536 438.784 515.147 440.12C515.758 441.456 516.691 442.425 517.77 442.845C518.848 443.264 519.997 443.105 520.999 442.396Z" fill="#FFB7B7"/>
<path d="M521.02 331.189L528.15 323.126C528.15 323.126 534.893 331 534.727 338.547C534.56 346.095 536.579 386.3 536.579 386.3L525.452 434.088L517.166 424.628L526.873 387.321L519.224 355.487L521.02 331.189Z" fill="#3F3D56"/>
<path d="M474.923 444.648C474.373 444.117 473.911 443.421 473.57 442.607C473.23 441.794 473.018 440.884 472.95 439.942C472.883 438.999 472.96 438.047 473.179 437.152C473.397 436.257 473.75 435.442 474.213 434.762L470.113 421.157L475.3 415.585L480.9 434.915C481.648 436.101 482.066 437.637 482.073 439.232C482.081 440.827 481.678 442.371 480.941 443.57C480.204 444.77 479.185 445.542 478.075 445.741C476.966 445.94 475.844 445.551 474.923 444.648V444.648Z" fill="#FFB7B7"/>
<path d="M485.876 334.544L479.612 325.129C479.612 325.129 472.16 331.57 471.58 339.076C471 346.581 465.033 385.981 465.033 385.981L471.334 435.528L480.471 427.827L474.543 388.942L485.257 358.962L485.876 334.544Z" fill="#3F3D56"/>
<path d="M505.87 304.412C512.281 304.412 517.478 296.996 517.478 287.848C517.478 278.7 512.281 271.284 505.87 271.284C499.459 271.284 494.262 278.7 494.262 287.848C494.262 296.996 499.459 304.412 505.87 304.412Z" fill="#FFB7B7"/>
<path d="M503.063 273.14C501.891 272.845 500.73 273.606 499.644 274.3C498.558 274.995 497.344 275.653 496.206 275.155C495.681 274.872 495.211 274.414 494.836 273.82C494.46 273.225 494.189 272.511 494.046 271.737C493.77 270.187 493.671 268.583 493.753 266.988L494.989 268.007L494.145 265.982L506.191 264.082C509.836 263.508 513.923 263.107 516.758 266.426C518.203 268.298 519.255 270.705 519.797 273.381C522.201 283.885 524.932 299.191 512.589 302.314C510.869 301.635 513.674 292.599 513.646 290.052C513.617 287.505 512.635 284.643 510.871 284.252L509.58 286.815C510.406 285.175 507.472 279.848 506.742 278.808C506.086 278.014 505.494 277.118 504.976 276.137C504.393 274.862 504.387 273.474 503.063 273.14Z" fill="#2F2E41"/>
<path d="M556.32 592H434.631C434.451 592 434.278 591.898 434.151 591.716C434.023 591.534 433.951 591.287 433.951 591.03C433.951 590.773 434.023 590.526 434.151 590.344C434.278 590.162 434.451 590.06 434.631 590.06H556.32C556.5 590.06 556.673 590.162 556.801 590.344C556.928 590.526 557 590.773 557 591.03C557 591.287 556.928 591.534 556.801 591.716C556.673 591.898 556.5 592 556.32 592Z" fill="#CBCBCB"/>
</g>
<defs>
<clipPath id="clip0_9_278">
<rect width="557" height="592" fill="white"/>
</clipPath>
</defs>
</svg>
