<svg width="24" height="24" viewBox="0 0 24 24" fill="none" xmlns="http://www.w3.org/2000/svg">
<path d="M6.05013 8.01188C4.74092 9.32132 4.00376 11.0961 4.00001 12.9478C3.99627 14.7994 4.72623 16.5772 6.03013 17.8919C7.50013 14.4919 10.1201 11.6519 13.3901 9.96188C10.5677 12.3501 8.66245 15.6445 8.00013 19.2819C10.6001 20.5119 13.8001 20.0619 15.9501 17.9119C18.9401 14.9219 19.7801 6.77188 19.9601 4.53188C19.9664 4.46071 19.957 4.38903 19.9326 4.32188C19.9082 4.25473 19.8693 4.19375 19.8188 4.14322C19.7683 4.0927 19.7073 4.05386 19.6401 4.02944C19.573 4.00503 19.5013 3.99562 19.4301 4.00188C17.1901 4.18188 9.04013 5.02188 6.05013 8.01188Z" fill="url(#paint0_linear_17_63)"/>
<defs>
<linearGradient id="paint0_linear_17_63" x1="11.981" y1="4" x2="11.981" y2="19.9563" gradientUnits="userSpaceOnUse">
<stop stop-color="#228B22"/>
<stop offset="1" stop-color="#4CAF50"/>
</linearGradient>
</defs>
</svg>
